<?xml version="1.0" encoding="UTF-8"?>
<svg id="Layer_1" xmlns="http://www.w3.org/2000/svg" version="1.1" viewBox="0 0 1000 1000">
  <!-- Generator: Adobe Illustrator 29.8.2, SVG Export Plug-In . SVG Version: 2.1.1 Build 3)  -->
  <defs>
    <style>
      .st0 {
        opacity: 0;
      }

      .st0, .st1 {
        fill: #f87413;
      }

      .st2 {
        fill: #fefefe;
      }
    </style>
  </defs>
  <path class="st2" d="M102.7,794.3c199,269.6,597.1,269.7,796.2,0,211-285.9,62.2-696.2-282.5-776.9C167.2-87.7-172.6,421.5,102.7,794.3Z"/>
  <path class="st0" d="M898.9,794.3c-74.3-94.8-176.8-162.8-295.7-187.4-166.5-34.6-335.4,17-455.6,135.3l-44.9,52.1C-172.6,421.5,167.2-87.7,616.5,17.5c344.7,80.7,493.5,491,282.5,776.9ZM482.4,148.7c-152.1,13.6-228,196.6-129.6,314.4,87.8,105.1,256.9,87.1,319.1-34.9,69.2-135.8-38.6-293-189.5-279.5h0Z"/>
  <path class="st1" d="M898.9,794.3c-199.1,269.7-597.2,269.6-796.2,0l44.9-52.1c120.2-118.3,289.1-169.9,455.6-135.3,118.9,24.7,221.4,92.7,295.7,187.4Z"/>
  <path class="st1" d="M482.4,148.7c150.9-13.5,258.7,143.8,189.5,279.5-62.2,122-231.3,140-319.1,34.9-98.4-117.9-22.5-300.9,129.6-314.4h0Z"/>
</svg>